{"title":"The Mechanic 2011 R5 LiNE AC3-T0XiC-iNK","uid":6186829,"size":1525714077,"categoryP":"video","categoryS":"movies","magnet":"?xt=urn:btih:9e63ce8750e8464f5ee1b820703e9105a41f3320&amp;dn=The+Mechanic+2011+R5+LiNE+AC3-T0XiC-iNK&amp;tr=udp%3A%2F%2Ftracker.openbittorrent.com%3A80&amp;tr=udp%3A%2F%2Fopen.demonii.com%3A1337&amp;tr=udp%3A%2F%2Ftracker.coppersurfer.tk%3A6969&amp;tr=udp%3A%2F%2Fexodus.desync.com%3A6969","seeders":0,"leechers":1,"uploader":"Kill3rK","files":3,"time":1298135200,"description":"                        Clean Scene Releases and no fakes\n    \n\n                              &lt;a href=&quot; http://bitxtre.me/&quot; rel=&quot;nofollow&quot; target=&quot;_NEW&quot;&gt; http://bitxtre.me/&lt;/a&gt;\n\n\n-----------------------------------------------------------------------------------\n                                   nfo\n\n::::::::::::::Enjoy:Another:Release:From:T0XiC::::::::::::::\n\nFile:: The.Mechanic.2011.R5.LiNE.AC3-T0XiC-iNK\nVideo Source:: ....ELEKTRI4KA\nAudio Source:: ....Own\nLanguage::English\nIMDB: http://www.imdb.com/title/tt0472399/\n\nFollows an elite hit man as he teaches his trade to an apprentice who has a connection \nto one of his previous victims.\n\nSpecs::\n\nGeneral\n\nFormat                           : AVI\nFormat/Info                      : Audio Video Interleave\nFile size                        : 1.41 GiB\nDuration                         : 1h 28mn\nOverall bit rate                 : 2 278 Kbps\nWriting application              : VirtualDubMod 1.5.10.2 (build 2540/release)\nWriting library                  : VirtualDubMod build 2540/release\n\nVideo\nID                               : 0\nFormat                           : MPEG-4 Visual\nFormat profile                   : Advanced Simple@L5\nFormat settings, BVOP            : Yes\nFormat settings, QPel            : No\nFormat settings, GMC             : No warppoints\nFormat settings, Matrix          : Custom\nCodec ID                         : XVID\nCodec ID/Hint                    : XviD\nDuration                         : 1h 28mn\nBit rate                         : 1 820 Kbps\nWidth                            : 720 pixels\nHeight                           : 304 pixels\nDisplay aspect ratio             : 2.35:1\nFrame rate                       : 25.000 fps\nColor space                      : YUV\nChroma subsampling               : 4:2:0\nBit depth                        : 8 bits\nScan type                        : Progressive\nBits/(Pixel*Frame)               : 0.333\nStream size                      : 1.13 GiB (80%)\nWriting library                  : XviD 58\n\nAudio\nID                               : 1\nFormat                           : AC-3\nFormat/Info                      : Audio Coding 3\nMode extension                   : CM (complete main)\nCodec ID                         : 2000\nDuration                         : 1h 28mn\nBit rate mode                    : Constant\nBit rate                         : 448 Kbps\nChannel(s)                       : 6 channels\nChannel positions                : Front: L C R, Side: L R, LFE\nSampling rate                    : 48.0 KHz\nBit depth                        : 16 bits\nStream size                      : 284 MiB (20%)\nAlignment                        : Split accross interleaves\nInterleave, duration             : 40 ms (1.00 video frame)\nInterleave, preload duration     : 500 ms\n\n\nNOTES:: T0XiC-iNK is proud to present The Mechanic R5, 5.1 using our LiNE and genuine russian\nsurround channels. Enjoy\n\n::Why Complain? Whats Free Is Free::\n\n::iNK is currently a free agent looking for work, if you would like iNK's touch, give me a email at:\n...&lt;a class=&quot;__cf_email__&quot; href=&quot;/cdn-cgi/l/email-protection&quot; data-cfemail=&quot;96f2fff1ffe2f7fab8fff8fdd6faffe0f3b8f5f9fb&quot;&gt;[email&amp;#160;protected]&lt;/a&gt;&lt;script cf-hash='f9e31' type=&quot;text/javascript&quot;&gt;\n/* &lt;![CDATA[ */!function(){try{var t=&quot;currentScript&quot;in document?document.currentScript:function(){for(var t=document.getElementsByTagName(&quot;script&quot;),e=t.length;e--;)if(t[e].getAttribute(&quot;cf-hash&quot;))return t[e]}();if(t&amp;&amp;t.previousSibling){var e,r,n,i,c=t.previousSibling,a=c.getAttribute(&quot;data-cfemail&quot;);if(a){for(e=&quot;&quot;,r=parseInt(a.substr(0,2),16),n=2;a.length-n;n+=2)i=parseInt(a.substr(n,2),16)^r,e+=String.fromCharCode(i);e=document.createTextNode(e),c.parentNode.replaceChild(e,c)}}}catch(u){}}();/* ]]&gt; */&lt;/script&gt;\n\n::We are always looking for friends with unreleased DVD's, Screeners, R5's, Audio, Cams, Silvers,\n...and any other good sources you may have to offer - contact us: &lt;a class=&quot;__cf_email__&quot; href=&quot;/cdn-cgi/l/email-protection&quot; data-cfemail=&quot;3e4a0e46575d4c5b525b5f4d5b4d7e564b4d56535f5752105d5153&quot;&gt;[email&amp;#160;protected]&lt;/a&gt;&lt;script cf-hash='f9e31' type=&quot;text/javascript&quot;&gt;\n/* &lt;![CDATA[ */!function(){try{var t=&quot;currentScript&quot;in document?document.currentScript:function(){for(var t=document.getElementsByTagName(&quot;script&quot;),e=t.length;e--;)if(t[e].getAttribute(&quot;cf-hash&quot;))return t[e]}();if(t&amp;&amp;t.previousSibling){var e,r,n,i,c=t.previousSibling,a=c.getAttribute(&quot;data-cfemail&quot;);if(a){for(e=&quot;&quot;,r=parseInt(a.substr(0,2),16),n=2;a.length-n;n+=2)i=parseInt(a.substr(n,2),16)^r,e+=String.fromCharCode(i);e=document.createTextNode(e),c.parentNode.replaceChild(e,c)}}}catch(u){}}();/* ]]&gt; */&lt;/script&gt;\n\n::::::::::::::::::::::::::::::::::::   Respect To   :::::::::::::::::::::::::::::::::::::\n::IMAGiNE,FLAWL3SS,Hive-CM8,DiGiTALiNK,Tranz,Vik,OneTwo,Joey,bob,Unevano &amp;; our friends on utn and PA::\n                       &quot;and to all of you who support us, Thank-You\n\n","torrent":{"xt":"urn:btih:9e63ce8750e8464f5ee1b820703e9105a41f3320","amp;dn":"The+Mechanic+2011+R5+LiNE+AC3-T0XiC-iNK","amp;tr":["udp%3A%2F%2Ftracker.openbittorrent.com%3A80","udp%3A%2F%2Fopen.demonii.com%3A1337","udp%3A%2F%2Ftracker.coppersurfer.tk%3A6969","udp%3A%2F%2Fexodus.desync.com%3A6969"],"infoHash":"9e63ce8750e8464f5ee1b820703e9105a41f3320","infoHashBuffer":{"type":"Buffer","data":[158,99,206,135,80,232,70,79,94,225,184,32,112,62,145,5,164,31,51,32]},"announce":[],"urlList":[]}}